<svg width="643" height="644" viewBox="0 0 643 644" fill="none" xmlns="http://www.w3.org/2000/svg">
<path d="M643 0H0V644H643V0Z" fill="url(#paint0_linear_57_69)"/>
<path d="M142.948 343.771L143.091 343.455L153.088 320.98H116.568L119.544 327.623C124.194 338.076 132.643 341.338 132.643 341.338H125.623L126.564 343.461L126.594 343.52C129.707 350.509 139.656 350.712 142.948 343.771Z" fill="white"/>
<path d="M132.845 313.932H156.219L159.964 305.501L161.214 302.692L163.727 297.075L168.103 287.242L169.972 283.026H99.7185C100.362 284.472 101.088 285.879 101.892 287.242C104.339 291.362 108.095 294.576 111.078 297.075C114.061 299.573 118.36 301.428 121.098 302.692C124.469 304.145 128.036 305.092 131.684 305.501H114.906C114.906 305.501 118.383 313.384 132.845 313.932Z" fill="white"/>
<path d="M102.892 271.261C106.635 274.339 111.332 276.016 116.175 276.002H173.08L180.576 259.144C181.255 257.623 181.544 255.956 181.416 254.294C181.287 252.632 180.745 251.029 179.84 249.631C178.934 248.232 177.694 247.083 176.231 246.288C174.769 245.493 173.131 245.077 171.467 245.078H83.5425C84.9833 251.243 89.9963 255.841 95.3903 259.127C96.3251 259.723 97.2717 260.224 98.2124 260.713C105.035 264.29 113.007 265.805 113.007 265.805H97.9981C98.3677 266.416 98.7795 266.999 99.2305 267.552C100.311 268.92 101.539 270.164 102.892 271.261Z" fill="white"/>
<path d="M314.159 342.274H256.081L260.772 341.457C261.174 341.386 261.554 341.224 261.883 340.983C262.212 340.743 262.482 340.429 262.672 340.068L275.454 311.446C275.459 311.42 275.459 311.394 275.454 311.368C275.594 311.018 275.656 310.643 275.638 310.267C275.619 309.891 275.52 309.523 275.348 309.189C275.175 308.855 274.932 308.561 274.636 308.329C274.34 308.097 273.998 307.932 273.632 307.844L271.638 307.355H313.606C316.723 307.351 319.773 306.449 322.393 304.757C325.012 303.066 327.092 300.656 328.383 297.814L331.621 290.772H279.062L283.754 289.955C284.173 289.881 284.57 289.707 284.909 289.449C285.249 289.191 285.522 288.855 285.706 288.47L291.309 275.948L296.429 264.523C296.507 264.319 296.542 264.101 296.529 263.883C296.517 263.666 296.459 263.453 296.359 263.259C296.259 263.065 296.119 262.895 295.949 262.759C295.778 262.623 295.58 262.525 295.369 262.472L292.107 261.655H339.558C342.718 261.653 345.808 260.729 348.452 258.995C351.095 257.261 353.177 254.793 354.442 251.893L357.419 245.078H274.889C274.889 245.078 281.735 251.041 278.217 259.061L278.181 259.127L273.71 269.198L247.847 327.367L240.702 343.437C240.702 343.437 240.702 343.473 240.702 343.479C239.388 346.522 237.624 349.35 235.469 351.868C229.367 358.839 222.865 358.893 222.627 358.893H296.227C299.365 358.891 302.436 357.981 305.069 356.271C307.703 354.561 309.787 352.125 311.069 349.257L314.159 342.274Z" fill="white"/>
<path d="M403.125 342.31H345.041L349.733 341.493C350.134 341.423 350.513 341.261 350.842 341.02C351.17 340.779 351.438 340.466 351.626 340.104L364.426 311.446L364.468 311.326C364.596 310.975 364.648 310.602 364.622 310.229C364.596 309.857 364.491 309.494 364.315 309.165C364.139 308.835 363.896 308.547 363.601 308.318C363.306 308.09 362.967 307.926 362.604 307.838L360.634 307.355H402.584C405.704 307.353 408.757 306.453 411.38 304.761C414.004 303.07 416.086 300.658 417.379 297.814L420.594 290.748H368.034L372.726 289.931C373.151 289.857 373.552 289.679 373.894 289.414C374.235 289.149 374.507 288.805 374.685 288.411L385.401 264.523C385.479 264.319 385.514 264.101 385.502 263.883C385.49 263.666 385.432 263.453 385.331 263.259C385.231 263.065 385.091 262.895 384.921 262.759C384.75 262.623 384.553 262.525 384.341 262.472L381.079 261.655H428.524C431.683 261.651 434.773 260.726 437.417 258.993C440.06 257.259 442.142 254.793 443.408 251.893L446.385 245.078H363.855C363.855 245.078 370.701 251.041 367.183 259.061L367.147 259.127L362.676 269.198L327.74 347.742C326.868 349.197 325.872 350.574 324.763 351.857C318.666 358.827 312.165 358.881 311.927 358.881H385.205C388.344 358.88 391.416 357.97 394.05 356.26C396.685 354.55 398.77 352.114 400.053 349.245L403.125 342.31Z" fill="white"/>
<path d="M237.553 313.932C237.821 313.336 238.083 312.74 238.333 312.179C239.344 310.024 240.175 307.788 240.815 305.495C241.052 304.575 241.193 303.634 241.238 302.686C241.303 300.965 240.954 299.253 240.22 297.695C236.676 299.029 232.931 299.745 229.146 299.812C229.146 299.812 231.635 299.043 235.028 297.91C239.261 296.508 244.911 292.853 248.894 287.242C249.826 285.917 250.623 284.503 251.276 283.02L254.396 276.002L261.891 259.144C261.901 259.112 261.913 259.08 261.927 259.049V259.007C262.523 257.528 266.958 245.096 248.484 245.096H188.476C188.476 245.096 195.329 251.059 191.804 259.079L191.775 259.144L187.297 269.216L184.285 276.002L181.153 283.02L179.278 287.242L174.914 297.075L172.419 302.686L171.163 305.495L167.424 313.932L164.322 320.951L161.452 327.367L154.308 343.437C154.308 343.437 154.308 343.473 154.308 343.479C152.998 346.525 151.233 349.354 149.075 351.869C142.978 358.839 136.477 358.893 136.239 358.893H155.886C156.106 358.893 162.203 358.839 168.109 352.53C168.317 352.328 168.514 352.095 168.704 351.869C170.859 349.349 172.62 346.516 173.925 343.467C173.925 343.467 173.925 343.467 173.925 343.425L180.546 328.518L190.209 306.771C190.356 306.42 190.425 306.042 190.413 305.663C190.401 305.283 190.306 304.911 190.137 304.571C189.967 304.231 189.726 303.932 189.43 303.694C189.134 303.456 188.791 303.285 188.423 303.193L186.428 302.704H208.076C212.922 302.704 215.643 303.896 217.126 305.512C219.888 308.542 218.275 313.038 217.947 313.825V313.873C217.933 313.897 217.921 313.923 217.911 313.95L214.792 320.968L204.807 343.425C204.807 343.425 204.807 343.461 204.807 343.467C203.497 346.513 201.733 349.342 199.574 351.857C193.477 358.827 186.976 358.881 186.75 358.881H206.397C206.623 358.881 213.137 358.827 219.239 351.857C221.375 349.335 223.121 346.507 224.419 343.467C224.419 343.467 224.419 343.467 224.419 343.425L234.409 320.951L237.553 313.932ZM208.088 287.242H193.311L198.002 286.431C198.43 286.357 198.834 286.179 199.177 285.912C199.519 285.644 199.791 285.296 199.967 284.898L204.426 274.893L210.094 262.138C210.187 261.932 210.234 261.708 210.231 261.482C210.228 261.256 210.176 261.033 210.078 260.829C209.979 260.626 209.838 260.446 209.663 260.303C209.488 260.161 209.283 260.058 209.064 260.003L205.802 259.186H239.446C239.751 259.188 240.052 259.265 240.32 259.412C240.588 259.559 240.815 259.771 240.981 260.027C241.147 260.284 241.246 260.578 241.27 260.883C241.295 261.188 241.243 261.494 241.119 261.774L234.778 276.043C233.379 279.18 230.694 281.41 227.539 283.062C219.37 287.242 208.088 287.242 208.088 287.242Z" fill="white"/>
<path d="M535.947 245.078H529.993H520.467C520.467 245.078 527.314 251.041 523.789 259.061L523.759 259.127L519.282 269.198L510.006 290.122C509.67 290.89 509.119 291.544 508.419 292.005C507.72 292.467 506.902 292.716 506.065 292.722H455.964L460.656 291.911C461.079 291.837 461.478 291.66 461.817 291.396C462.157 291.132 462.427 290.789 462.603 290.396L463.591 288.196L474.415 263.974L476.838 258.542C477.493 257.089 477.773 255.495 477.654 253.906C477.536 252.316 477.021 250.782 476.158 249.443C475.294 248.104 474.11 247.003 472.713 246.241C471.315 245.478 469.749 245.078 468.158 245.078H462.204V245.108V245.078H452.642C452.642 245.078 459.489 251.041 455.97 259.061L455.935 259.127L451.463 269.198L425.607 327.367L418.462 343.437C418.462 343.437 418.462 343.473 418.462 343.479C417.134 346.521 415.355 349.345 413.187 351.857C407.085 358.827 400.583 358.881 400.345 358.881H421.665C424.803 358.882 427.873 357.973 430.506 356.264C433.139 354.555 435.221 352.119 436.502 349.251L452.517 313.395L452.547 313.312C452.679 312.959 452.735 312.581 452.71 312.205C452.686 311.828 452.583 311.461 452.407 311.128C452.231 310.794 451.986 310.502 451.689 310.27C451.392 310.038 451.049 309.872 450.684 309.782L448.725 309.305H498.111C498.473 309.304 498.83 309.394 499.148 309.567C499.466 309.739 499.737 309.989 499.934 310.294C500.131 310.598 500.249 310.947 500.277 311.308C500.305 311.67 500.242 312.033 500.093 312.364L493.401 327.367L489.597 335.924L485.894 344.224C484.627 346.987 482.982 349.56 481.006 351.869C474.903 358.839 468.402 358.893 468.164 358.893H489.395C492.543 358.899 495.625 357.989 498.268 356.274C500.91 354.56 502.998 352.113 504.279 349.233L542.234 263.963C542.234 263.915 542.269 263.861 542.293 263.813L544.675 258.512C545.324 257.057 545.599 255.462 545.475 253.873C545.351 252.284 544.831 250.751 543.963 249.415C543.095 248.079 541.906 246.982 540.506 246.224C539.106 245.467 537.538 245.073 535.947 245.078Z" fill="white"/>
<path d="M193.245 398.922V385.839H198.074C199.24 385.816 200.394 386.082 201.432 386.615C202.394 387.124 203.19 387.9 203.724 388.851C204.276 389.943 204.563 391.15 204.563 392.375C204.563 393.599 204.276 394.806 203.724 395.899C203.192 396.849 202.395 397.624 201.432 398.129C200.394 398.662 199.24 398.928 198.074 398.904L193.245 398.922ZM195.031 397.318H198.086C198.959 397.358 199.825 397.151 200.586 396.722C201.259 396.314 201.793 395.711 202.116 394.993C202.458 394.177 202.634 393.301 202.634 392.417C202.634 391.532 202.458 390.656 202.116 389.841C201.791 389.122 201.258 388.517 200.586 388.105C199.824 387.679 198.958 387.472 198.086 387.509H195.031V397.318Z" fill="white"/>
<path d="M229.402 398.922V385.839H237.356V387.444H231.17V391.272H236.094V392.876H231.17V397.3H237.553V398.922H229.402Z" fill="white"/>
<path d="M262.034 398.922V385.839H263.821V397.3H269.804V398.922H262.034Z" fill="white"/>
<path d="M293.994 398.922V385.839H295.78V398.922H293.994Z" fill="white"/>
<path d="M324.644 398.922L319.964 385.857H321.827L325.834 397.187H325.31L329.323 385.857H331.187L326.507 398.922H324.644Z" fill="white"/>
<path d="M355.371 398.922V385.839H363.331V387.444H357.145V391.272H362.063V392.876H357.145V397.3H363.497V398.922H355.371Z" fill="white"/>
<path d="M388.009 398.922V385.84H392.236C393.05 385.822 393.859 385.965 394.617 386.263C395.266 386.518 395.818 386.971 396.195 387.557C396.57 388.249 396.767 389.024 396.767 389.811C396.767 390.598 396.57 391.373 396.195 392.065C395.778 392.692 395.192 393.189 394.504 393.496L397.428 398.904H395.266L392.623 393.812H389.902V398.922H388.009ZM389.872 392.244H392.218C392.947 392.297 393.668 392.067 394.23 391.6C394.462 391.366 394.642 391.086 394.758 390.777C394.874 390.469 394.923 390.14 394.903 389.811C394.926 389.482 394.877 389.152 394.761 388.843C394.645 388.535 394.464 388.254 394.23 388.022C393.658 387.577 392.94 387.364 392.218 387.426H389.872V392.244Z" fill="white"/>
<path d="M424.463 398.922V393.269L419.855 385.857H421.874L425.749 392.202H424.928L428.804 385.857H430.816L426.232 393.269V398.922H424.463Z" fill="white"/>
<path d="M181.046 392.918L77.0171 392.375L181.046 391.832V392.918Z" fill="white"/>
<path d="M446.474 391.832L550.503 392.375L446.474 392.918V391.832Z" fill="white"/>
<defs>
<linearGradient id="paint0_linear_57_69" x1="0" y1="322" x2="643" y2="322" gradientUnits="userSpaceOnUse">
<stop stop-color="#F4A74B"/>
<stop offset="1" stop-color="#EB684B"/>
</linearGradient>
</defs>
</svg>
